<svg xmlns="http://www.w3.org/2000/svg" viewBox="0 0 16 16"><defs><style>.cls-1{fill:#ffffff;}</style></defs><g id="Layer_2" data-name="Layer 2"><g id="Layer_1-2" data-name="Layer 1"><path class="cls-1" d="M3.65,1.33a.67.67,0,0,0-.95-.12l-.06.06-1,1a1.68,1.68,0,0,0-.45,1.77,17.55,17.55,0,0,0,4.16,6.61,17.65,17.65,0,0,0,6.61,4.17,1.72,1.72,0,0,0,1.77-.45l1-1a.69.69,0,0,0,0-1l-.07-.05-2.3-1.8a.71.71,0,0,0-.58-.12L9.6,11a1.75,1.75,0,0,1-1.66-.46L5.48,8.06A1.74,1.74,0,0,1,5,6.41l.55-2.19a.66.66,0,0,0-.12-.58ZM1.88.51a1.75,1.75,0,0,1,2.47,0L4.5.67,6.29,3a1.73,1.73,0,0,1,.32,1.49L6.06,6.66a.68.68,0,0,0,.18.65L8.69,9.76a.68.68,0,0,0,.65.18l2.19-.54A1.73,1.73,0,0,1,13,9.71l2.31,1.79a1.75,1.75,0,0,1,.16,2.62l-1,1a2.79,2.79,0,0,1-2.88.7,18.61,18.61,0,0,1-7-4.42,18.61,18.61,0,0,1-4.42-7,2.77,2.77,0,0,1,.7-2.87l1-1Z"></path></g></g></svg>